<?xml version="1.0" standalone="no"?>
<!DOCTYPE svg PUBLIC "-//W3C//DTD SVG 1.0//EN" "http://www.w3.org/TR/2001/REC-SVG-20010904/DTD/svg10.dtd">
<svg xmlns="http://www.w3.org/2000/svg" xmlns:xlink="http://www.w3.org/1999/xlink" id="body_1" width="427" height="412">

<g transform="matrix(0.33333334 0 0 0.33333334 0.33333334 -0)">
	<g transform="matrix(0.1 0 -0 -0.1 0 1236)">
        <path d="M2727 12349C 2549 12323 2439 12278 2096 12090C 2021 12049 2013 12046 1941 12048C 1788 12051 1541 12000 1270 11910C 980 11813 812 11726 682 11604C 609 11537 510 11402 510 11371C 510 11353 537 11346 688 11324C 718 11319 728 11314 721 11306C 716 11300 706 11230 700 11151C 690 11021 690 11006 706 10989C 730 10963 717 10755 690 10725C 662 10694 644 10451 666 10408C 688 10365 676 10178 649 10140C 635 10121 628 10084 620 9988C 610 9870 611 9857 629 9823C 646 9789 647 9774 639 9685C 633 9610 626 9579 610 9558C 594 9536 588 9506 580 9409C 575 9342 570 9287 568 9286C 479 9246 431 9185 429 9108L429 9108L427 9060L373 9060C 127 9060 56 8720 282 8626C 335 8603 427 8605 475 8630C 497 8641 516 8650 518 8650C 520 8650 512 8634 500 8615C 479 8582 479 8578 494 8555C 513 8525 514 8520 497 8520C 489 8520 475 8511 465 8500C 442 8474 454 8430 488 8415C 500 8410 510 8398 510 8390C 510 8382 492 8130 470 7830C 448 7530 428 7249 425 7205C 414 7044 410 7029 387 7032C 367 7035 366 7040 369 7118L369 7118L372 7200L331 7200C 301 7200 288 7195 280 7180C 265 7153 242 7155 234 7184C 229 7204 221 7208 168 7214C 134 7217 92 7220 74 7220C 42 7220 41 7219 35 7166C 24 7079 26 7075 98 7072L98 7072L160 7069L160 7034L160 6999L93 7002L25 7005L22 6948L19 6890L62 6890C 133 6890 150 6882 150 6848L150 6848L150 6818L82 6821L15 6825L6 6757C 1 6720 -1 6687 2 6685C 4 6683 47 6678 97 6674C 183 6668 188 6668 199 6689C 215 6717 238 6716 246 6685C 251 6663 258 6660 296 6660L296 6660L340 6660L340 6709C 340 6787 350 6820 372 6820C 391 6820 392 6814 388 6740C 386 6678 388 6660 398 6660C 407 6660 405 6652 391 6634C 363 6599 365 6565 395 6535C 454 6475 542 6541 504 6616C 493 6636 493 6645 501 6650C 514 6658 516 6689 570 7475C 636 8447 631 8391 649 8397C 701 8416 718 8476 678 8504C 657 8519 657 8520 675 8540C 692 8559 692 8563 677 8600C 659 8646 662 8649 700 8616C 744 8580 816 8566 886 8580C 933 8590 951 8600 991 8640C 1127 8776 1052 9001 861 9029L861 9029L816 9035L819 9082C 822 9141 795 9206 751 9243L751 9243L719 9270L728 9397C 737 9515 736 9527 718 9557C 700 9587 700 9596 711 9692C 719 9761 729 9802 741 9815C 754 9830 760 9867 768 9969C 777 10092 776 10107 759 10139C 742 10172 742 10184 752 10275C 760 10339 770 10384 782 10400C 795 10419 802 10458 809 10555C 817 10674 817 10688 800 10715C 774 10758 782 10931 812 10974C 834 11005 849 11103 851 11232C 852 11283 856 11307 864 11305C 870 11303 979 11294 1105 11285C 1545 11255 1754 11223 1815 11176C 1912 11102 2003 10889 2028 10680C 2033 10639 2035 10493 2032 10356C 2028 10171 2030 10109 2039 10114C 2045 10118 2050 10133 2050 10148C 2050 10163 2055 10182 2060 10190C 2068 10202 2070 10199 2070 10178C 2070 10132 2086 10146 2099 10203C 2121 10303 2130 10291 2130 10160C 2130 10030 2112 9830 2085 9664C 2075 9604 2073 9564 2079 9561C 2085 9557 2079 9501 2064 9420C 2035 9258 2022 9114 2037 9123C 2043 9127 2050 9143 2053 9160C 2063 9209 2077 9194 2083 9127C 2086 9093 2092 9057 2095 9047C 2104 9026 2120 9024 2120 9045C 2120 9053 2124 9060 2129 9060C 2133 9060 2135 9027 2132 8988C 2129 8930 2130 8917 2140 8927C 2147 8933 2158 8936 2165 8934C 2172 8931 2181 8940 2186 8957C 2192 8979 2195 8966 2201 8897C 2205 8846 2214 8801 2222 8792C 2242 8769 2283 8589 2282 8532C 2282 8506 2279 8432 2275 8367C 2253 8011 2417 7688 2761 7409C 2879 7314 2890 7301 2980 7152C 3064 7014 3134 6916 3315 6685C 3481 6473 3547 6374 3619 6225C 3710 6039 3933 5528 3979 5403C 4077 5135 4198 4621 4265 4190C 4279 4099 4302 3958 4315 3875C 4329 3793 4340 3696 4340 3660C 4340 3537 4323 3499 4129 3184C 3937 2872 3836 2728 3746 2640C 3694 2590 3690 2588 3689 2610C 3689 2624 3685 2667 3681 2705C 3675 2748 3676 2823 3683 2898C 3697 3052 3681 3280 3645 3459C 3631 3527 3621 3583 3622 3584C 3661 3609 3720 3664 3742 3699C 3821 3824 3727 4000 3582 4000C 3545 4000 3487 3971 3462 3941C 3414 3882 3396 3776 3424 3722C 3443 3687 3514 3619 3566 3587L3566 3587L3608 3561L3629 3448C 3640 3386 3654 3297 3660 3250C 3673 3139 3673 2877 3660 2885C 3655 2888 3650 2908 3649 2928C 3649 2948 3645 2974 3640 2985C 3633 3000 3631 2995 3631 2962C 3630 2891 3571 2741 3522 2680C 3498 2650 3503 2637 3457 2835L3457 2835L3421 2985L3461 3018C 3522 3070 3554 3132 3546 3181C 3533 3261 3482 3320 3414 3334C 3351 3348 3274 3292 3250 3216C 3225 3137 3259 3067 3355 3004L3355 3004L3409 2968L3439 2842C 3456 2772 3473 2694 3476 2668C 3482 2622 3482 2621 3425 2561C 3370 2503 3367 2501 3341 2514C 3298 2536 3180 2570 3146 2570C 3103 2570 3070 2551 3043 2511C 3014 2468 3014 2456 3043 2474C 3065 2488 3093 2493 3138 2491C 3170 2490 3220 2438 3220 2406C 3220 2363 3181 2362 3092 2403C 3001 2445 2932 2456 2856 2440C 2755 2419 2690 2354 2690 2273L2690 2273L2690 2229L2660 2251C 2637 2269 2633 2277 2641 2291C 2661 2328 2815 2516 2892 2595L2892 2595L2970 2677L3038 2684C 3132 2694 3184 2721 3209 2774C 3263 2885 3202 3010 3094 3010C 3051 3010 2979 2970 2953 2930C 2924 2888 2922 2803 2949 2745L2949 2745L2967 2705L2863 2590C 2805 2527 2726 2433 2688 2382C 2649 2332 2611 2290 2604 2290C 2584 2290 2586 2347 2609 2450C 2661 2680 2789 2933 2970 3160C 3076 3292 3082 3297 3171 3303C 3323 3314 3395 3380 3395 3510C 3395 3591 3368 3639 3306 3669C 3233 3705 3158 3690 3092 3627C 3023 3561 3014 3502 3055 3386L3055 3386L3079 3317L3049 3281C 2878 3077 2795 2953 2711 2779C 2641 2633 2606 2530 2583 2403C 2574 2352 2564 2310 2561 2310C 2545 2311 2532 2333 2491 2420C 2420 2575 2423 2564 2452 2598C 2515 2673 2543 2781 2529 2890C 2502 3082 2348 3282 2072 3480C 1895 3607 1843 3637 1825 3619C 1810 3603 1683 3324 1640 3213C 1599 3108 1582 3040 1565 2912C 1557 2853 1543 2774 1534 2735C 1511 2633 1520 2575 1576 2464C 1602 2412 1620 2367 1617 2364C 1601 2347 1551 2385 1463 2482C 1409 2540 1317 2640 1259 2703C 1201 2766 1137 2838 1116 2863L1116 2863L1078 2910L1079 3020C 1081 3117 1085 3140 1110 3205C 1168 3347 1143 3509 1040 3677C 1012 3722 986 3761 981 3764C 971 3770 926 3631 904 3528C 893 3478 889 3420 892 3345C 897 3216 922 3146 989 3081C 1031 3040 1047 3002 1035 2973C 1029 2958 1021 2963 983 3005C 915 3079 850 3183 758 3364C 714 3453 655 3560 628 3602C 566 3699 560 3721 563 3844C 565 3939 563 3949 532 4014C 497 4089 409 4184 288 4277L288 4277L221 4329L215 4299C 207 4263 235 4079 262 3991C 273 3955 293 3903 307 3876C 339 3813 423 3729 486 3697C 514 3683 541 3666 547 3658C 553 3651 590 3569 630 3476C 669 3382 720 3273 742 3233C 770 3182 778 3160 768 3160C 748 3160 657 3225 563 3305C 430 3419 315 3459 181 3440C 145 3435 111 3430 105 3430C 100 3430 89 3426 81 3421C 70 3414 90 3387 164 3302C 330 3112 440 3062 600 3105C 753 3146 826 3113 953 2946C 987 2901 1053 2824 1101 2773C 1149 2723 1193 2672 1200 2661C 1217 2629 1184 2634 1104 2676C 1066 2696 1003 2730 964 2750C 877 2796 802 2807 701 2790C 619 2776 507 2725 468 2683L468 2683L440 2654L578 2596C 653 2564 752 2528 797 2517C 901 2492 958 2502 1044 2560C 1117 2610 1175 2614 1258 2575C 1360 2528 1513 2349 1546 2241C 1558 2200 1573 2179 1635 2124C 1703 2063 1726 2030 1701 2030C 1696 2030 1677 2018 1660 2003L1660 2003L1628 1977L1571 2007C 1465 2065 1336 2089 1230 2070C 1153 2056 1068 2022 1073 2006C 1075 2000 1114 1970 1160 1938C 1206 1906 1239 1880 1233 1880C 1210 1880 1000 1963 896 2014C 739 2090 609 2179 507 2281C 459 2329 420 2367 420 2364C 420 2355 544 2113 588 2035C 858 1562 1225 1182 1598 990C 1673 951 1683 948 1708 960C 1766 987 1800 1000 1800 995C 1800 987 1682 930 1665 930C 1613 930 1463 801 1430 728C 1343 537 1552 417 1819 506C 1943 547 2105 652 2253 788C 2290 823 2287 806 2240 715C 2155 547 2166 416 2269 372C 2320 351 2431 354 2510 379C 2636 418 2772 522 2822 617C 2835 640 2850 660 2857 660C 2864 660 2893 651 2922 639C 3139 554 3499 507 3775 529C 4198 563 4591 674 5044 889C 5115 923 5174 949 5176 947C 5178 946 5175 927 5170 905C 5120 686 5186 366 5313 208C 5439 52 5684 116 5698 310C 5700 343 5704 370 5707 370C 5709 370 5721 364 5733 356C 5801 311 5916 319 5976 373C 6027 417 6050 468 6050 539L6050 539L6050 599L6106 569C 6145 549 6176 540 6209 540C 6334 541 6431 651 6417 777L6417 777L6413 819L6449 795C 6528 744 6632 742 6694 791C 6709 803 6721 806 6725 800C 6728 795 6747 790 6765 790C 6793 790 6802 796 6815 819C 6838 865 6868 984 6891 1125C 6902 1196 6913 1256 6914 1258C 6921 1265 6970 1217 6970 1203C 6970 1194 6961 1172 6949 1153C 6918 1103 6925 1007 6967 918C 7002 843 7028 806 7109 712L7109 712L7164 649L7178 677C 7188 695 7193 735 7194 790C 7194 922 7157 1015 7060 1126C 6998 1197 6981 1240 7022 1225C 7031 1221 7053 1189 7071 1152C 7139 1018 7263 927 7379 926C 7414 926 7448 933 7469 944L7469 944L7502 962L7536 929C 7607 860 7627 773 7590 701C 7560 641 7556 591 7575 524C 7592 463 7719 221 7733 220C 7748 220 7789 324 7799 387C 7817 504 7789 610 7712 706C 7676 751 7630 830 7630 845C 7630 856 7687 821 7755 767C 7794 738 7857 695 7895 673C 7966 631 8016 585 8041 540C 8051 523 8055 478 8055 399C 8055 284 8055 283 8091 224C 8119 178 8150 148 8236 83C 8309 28 8347 5 8352 13C 8365 33 8361 133 8345 195C 8324 275 8299 310 8180 429C 8125 484 8080 534 8080 539C 8080 555 8106 552 8141 534C 8158 526 8242 499 8328 475C 8450 440 8488 425 8500 408C 8540 348 8604 291 8661 265C 8752 225 8963 209 9018 239C 9040 251 8866 408 8792 443C 8733 471 8724 472 8657 465C 8524 451 8500 454 8425 489C 8387 507 8299 542 8230 567C 8049 632 7891 717 7905 741C 7917 759 7956 749 7992 720C 8042 679 8070 670 8151 670C 8246 670 8296 684 8420 742L8420 742L8525 792L8456 827C 8309 901 8183 904 8070 834C 8028 808 7990 794 7933 784L7933 784L7855 771L7785 817C 7747 842 7671 896 7618 937C 7532 1002 7520 1014 7520 1041C 7520 1058 7516 1079 7511 1088C 7503 1103 7509 1105 7564 1105C 7612 1105 7640 1113 7694 1138C 7758 1168 7769 1170 7870 1170C 8020 1170 8217 1207 8227 1237C 8233 1253 8153 1364 8078 1445C 8000 1529 7916 1593 7828 1636C 7796 1651 7769 1669 7766 1676C 7763 1684 7787 1694 7838 1705C 7968 1734 8119 1788 8257 1857C 8345 1900 8395 1920 8408 1916C 8419 1912 8469 1867 8519 1815C 8603 1728 8610 1718 8610 1680C 8610 1629 8637 1600 8683 1600C 8749 1600 8773 1668 8724 1717C 8703 1738 8692 1741 8662 1736C 8626 1731 8623 1733 8539 1821C 8461 1905 8456 1911 8484 1906C 8543 1894 8676 1823 8753 1761C 8855 1678 8880 1645 8880 1591C 8880 1535 8922 1490 8972 1490C 9049 1490 9077 1574 9020 1632C 8992 1660 8986 1662 8944 1655L8944 1655L8899 1649L8827 1717C 8718 1820 8625 1877 8485 1925C 8470 1931 8481 1938 8535 1956C 8574 1969 8621 1987 8641 1996C 8677 2011 8679 2011 8718 1985C 8746 1966 8765 1961 8783 1965C 8874 1988 8854 2106 8761 2098C 8733 2096 8721 2088 8705 2063C 8690 2038 8667 2024 8610 2001C 8530 1970 8428 1938 8424 1943C 8422 1945 8457 1972 8500 2003C 8636 2102 8787 2255 8895 2404L8895 2404L8915 2432L8916 2343C 8917 2259 8919 2251 8963 2164C 9030 2030 9105 1975 9220 1976C 9272 1976 9295 1982 9336 2004C 9389 2033 9399 2046 9431 2139C 9469 2247 9449 2373 9369 2532C 9347 2575 9330 2612 9330 2615C 9330 2617 9369 2581 9416 2534C 9535 2417 9611 2378 9736 2372C 9855 2366 9920 2385 9985 2442C 10042 2492 10069 2547 10070 2611C 10070 2677 10053 2719 10006 2768C 9926 2853 9819 2890 9606 2909C 9485 2920 9442 2930 9519 2930C 9584 2930 9697 2959 9777 2995C 9871 3039 9942 3105 9982 3189C 10009 3246 10013 3264 10012 3334C 10011 3401 10006 3423 9983 3469C 9960 3514 9945 3529 9901 3552C 9834 3587 9739 3590 9672 3560C 9608 3531 9511 3432 9424 3307C 9323 3161 9322 3160 9368 3260C 9418 3369 9431 3424 9431 3530C 9431 3687 9364 3811 9248 3869C 9123 3932 8986 3901 8924 3795C 8865 3694 8885 3530 8979 3338C 9007 3282 9028 3235 9026 3233C 9025 3232 9006 3254 8984 3282C 8933 3349 8831 3433 8755 3471C 8713 3492 8667 3504 8604 3512C 8516 3522 8511 3522 8459 3498C 8325 3435 8273 3364 8284 3259C 8303 3075 8455 2983 8772 2963L8772 2963L8885 2956L8790 2939C 8661 2916 8615 2903 8550 2870C 8462 2825 8415 2778 8373 2692C 8339 2624 8335 2608 8336 2540C 8336 2450 8358 2400 8420 2347C 8498 2280 8592 2277 8702 2337C 8758 2367 8863 2474 8916 2555C 8957 2616 8969 2626 8944 2578C 8819 2337 8570 2087 8302 1936C 8140 1844 7851 1739 7823 1762C 7801 1780 7817 1787 7890 1794C 7964 1802 7974 1809 7939 1834C 7903 1859 7922 1876 7991 1884C 8029 1888 8057 1896 8062 1904C 8067 1912 8086 1924 8105 1930C 8124 1936 8140 1945 8140 1949C 8140 1958 8031 1990 8002 1990C 7976 1990 7969 2000 7980 2020C 7990 2039 8138 2130 8158 2130C 8165 2130 8170 2139 8170 2149C 8170 2160 8189 2187 8213 2209L8213 2209L8255 2250L8180 2244C 8139 2241 8083 2234 8057 2229C 7991 2217 7990 2217 7990 2243C 7990 2268 8031 2331 8069 2364C 8080 2375 8090 2390 8090 2398C 8090 2405 8098 2425 8107 2441C 8116 2456 8122 2471 8119 2474C 8117 2476 8096 2473 8073 2467C 8050 2461 8027 2459 8024 2463C 8020 2467 8018 2497 8019 2529C 8021 2578 8017 2593 8001 2609C 7989 2621 7980 2638 7980 2648C 7980 2658 7977 2669 7974 2673C 7964 2683 7911 2624 7895 2585C 7876 2542 7856 2540 7830 2582C 7810 2615 7808 2614 7795 2555C 7783 2499 7766 2470 7744 2470C 7733 2470 7715 2464 7705 2456C 7685 2441 7690 2439 7598 2501L7598 2501L7567 2523L7573 2460C 7580 2399 7579 2398 7557 2404C 7545 2407 7527 2410 7518 2410C 7507 2410 7500 2418 7500 2429C 7500 2459 7461 2500 7433 2500C 7419 2500 7397 2511 7384 2525C 7335 2578 7266 2561 7247 2491L7247 2491L7239 2458L7216 2479C 7173 2519 7090 2494 7090 2440C 7090 2429 7084 2420 7076 2420C 7068 2420 7055 2417 7046 2414C 7035 2410 7027 2416 7021 2433C 7010 2461 6974 2490 6949 2490C 6918 2490 6880 2451 6880 2419C 6880 2382 6864 2389 6855 2429C 6851 2449 6855 2470 6869 2496C 6905 2563 6890 2640 6836 2670C 6806 2686 6805 2691 6826 2731C 6834 2748 6849 2794 6859 2833C 6877 2903 6879 2905 6914 2912C 7005 2931 7050 2987 7050 3081C 7050 3128 7046 3136 7010 3172C 6971 3211 6968 3212 6916 3208C 6879 3205 6851 3196 6828 3179C 6810 3165 6750 3140 6695 3122C 6503 3062 6336 2966 6234 2859C 6185 2806 6183 2805 6134 2808C 6091 2811 6079 2808 6051 2784C 6019 2757 6017 2757 5954 2769C 5856 2787 5778 2760 5739 2695C 5716 2659 5716 2665 5736 2750C 5745 2787 5753 2884 5756 2974L5756 2974L5761 3133L5800 3161C 5821 3177 5844 3198 5849 3209C 5864 3237 5862 3290 5846 3322C 5832 3348 5834 3354 5887 3448C 5917 3502 5987 3609 6041 3686C 6221 3939 6300 4081 6332 4207L6332 4207L6343 4251L6368 4228L6393 4205L6387 4310C 6383 4368 6371 4485 6360 4570C 6336 4756 6336 4751 6355 4744C 6363 4740 6376 4743 6383 4748C 6391 4755 6401 4755 6410 4750C 6445 4728 6452 4742 6420 4770C 6385 4800 6385 4800 6413 4794C 6443 4787 6449 4800 6425 4820C 6403 4838 6414 4844 6439 4829C 6450 4822 6463 4819 6467 4824C 6476 4833 6437 4869 6367 4917C 6341 4935 6320 4957 6320 4965C 6320 4977 6324 4979 6339 4970C 6369 4954 6382 4958 6375 4980C 6371 4991 6373 5000 6379 5000C 6398 5000 6391 5022 6365 5042C 6351 5053 6340 5066 6340 5071C 6340 5089 6408 5110 6463 5110C 6552 5110 6625 5084 6839 4975C 6980 4903 7054 4870 7078 4870C 7113 4870 7113 4870 7192 4970C 7241 5031 7316 5081 7399 5107C 7442 5120 7489 5124 7600 5124C 7761 5123 7832 5111 8125 5035C 8219 5011 8363 4977 8445 4960C 8528 4943 8678 4905 8780 4875C 9010 4808 9071 4793 9186 4780C 9286 4769 9401 4779 9482 4806L9482 4806L9528 4821L9685 4766C 9793 4729 9863 4698 9909 4667C 10003 4604 10053 4581 10104 4574C 10146 4568 10149 4569 10156 4594C 10159 4608 10164 4620 10167 4620C 10175 4620 10466 4462 10559 4406C 10611 4375 10662 4350 10672 4350C 10683 4350 10699 4363 10708 4380C 10717 4396 10728 4410 10731 4410C 10738 4410 10756 4398 10916 4288C 11017 4219 11092 4190 11170 4190C 11203 4190 11230 4194 11230 4199C 11230 4204 11237 4224 11245 4244L11245 4244L11260 4280L11320 4241C 11426 4173 11565 4140 11622 4171C 11646 4184 11670 4238 11670 4280C 11670 4296 11672 4310 11674 4310C 11676 4310 11720 4285 11771 4255C 11828 4221 11871 4202 11880 4206C 11888 4210 11921 4215 11952 4218C 12001 4222 12028 4216 12129 4181C 12301 4122 12320 4125 12320 4211C 12320 4260 12333 4266 12401 4246C 12455 4230 12512 4225 12523 4236C 12535 4248 12491 4318 12449 4353C 12426 4373 12313 4437 12196 4496C 11890 4650 11591 4808 11463 4883C 11402 4919 11298 4976 11233 5009C 11151 5051 11052 5116 10910 5222C 10529 5504 10156 5775 9927 5934C 9802 6021 9701 6094 9702 6096C 9707 6100 10047 6040 10240 6000C 10786 5889 11200 5783 11775 5610C 12036 5532 12156 5503 12240 5498L12240 5498L12285 5495L12288 5533C 12292 5583 12300 5582 12492 5516C 12664 5456 12779 5432 12793 5453C 12806 5473 12794 5555 12771 5601C 12727 5686 12543 5849 12400 5928C 12324 5970 12028 6099 11895 6148C 11689 6224 11500 6278 10865 6444C 10048 6658 10087 6644 9860 6787C 9692 6892 9643 6917 9463 6990C 9337 7040 9305 7060 9350 7060C 9369 7060 9537 7113 9546 7122C 9553 7130 9440 7363 9404 7413C 9376 7451 9372 7464 9380 7480C 9388 7494 9385 7505 9367 7527C 9354 7542 9319 7596 9290 7645C 9197 7801 9060 7916 8825 8033C 8675 8107 8570 8151 8265 8265C 7999 8365 7932 8394 7681 8524C 7505 8615 7429 8637 7212 8656C 6926 8681 6874 8704 6721 8868C 6666 8927 6574 9011 6505 9063C 6439 9113 6198 9303 5970 9485C 5463 9889 5104 10168 4928 10293C 4768 10407 4733 10442 4685 10539C 4665 10580 4619 10661 4583 10719C 4547 10777 4443 10955 4353 11113C 4121 11520 4036 11652 3904 11811C 3826 11905 3677 12048 3585 12118C 3505 12178 3286 12289 3189 12319C 3060 12358 2870 12370 2727 12349zM809 11260C 810 11246 809 11190 805 11134L805 11134L798 11034L766 11034C 734 11035 733 11035 736 11080C 738 11105 741 11157 743 11196C 745 11235 750 11273 755 11279C 768 11300 805 11287 809 11260zM770 10634C 770 10617 767 10569 764 10528C 757 10453 757 10453 729 10454C 701 10455 700 10457 700 10501C 700 10526 703 10574 706 10607C 712 10665 713 10667 741 10666C 766 10665 770 10661 770 10634zM730 10025C 730 9992 727 9941 724 9912C 718 9870 715 9862 704 9871C 696 9877 683 9880 675 9876C 663 9872 660 9881 660 9928C 660 9959 663 10008 666 10035C 672 10082 674 10085 701 10085C 730 10085 730 10085 730 10025zM678 9497C 692 9502 695 9418 684 9336C 678 9293 675 9290 649 9290C 620 9290 620 9291 620 9348C 620 9379 623 9428 626 9457C 632 9501 635 9508 649 9501C 658 9496 671 9495 678 9497zM673 9189C 731 9163 748 9073 705 9022C 691 9005 680 8989 680 8985C 680 8982 692 8964 706 8945L706 8945L731 8912L777 8932C 834 8957 878 8950 925 8909C 1029 8818 968 8660 829 8660C 760 8660 719 8694 690 8773C 685 8788 673 8800 664 8800C 649 8800 650 8803 668 8823C 696 8853 696 8865 665 8895C 648 8913 630 8920 604 8920C 543 8920 514 8879 540 8829C 548 8814 547 8810 536 8810C 528 8810 513 8793 503 8773C 476 8722 440 8698 383 8693C 228 8680 171 8891 310 8963C 355 8986 417 8981 460 8950L460 8950L492 8927L528 8963L564 8999L543 9022C 514 9054 507 9085 520 9125C 541 9188 611 9217 673 9189zM5596 5069C 5698 5008 5736 4977 5755 4939C 5775 4902 5774 4874 5749 4785C 5733 4727 5731 4706 5740 4690C 5746 4678 5750 4659 5749 4647C 5748 4635 5751 4617 5755 4607C 5759 4597 5758 4571 5751 4551C 5738 4507 5736 4467 5748 4473C 5752 4476 5756 4439 5756 4392C 5757 4344 5768 4247 5781 4175C 5797 4084 5804 4005 5804 3910L5804 3910L5805 3775L5753 3666C 5671 3497 5567 3337 5442 3191L5442 3191L5413 3156L5377 3192C 5277 3292 5140 3224 5140 3074C 5140 3036 5146 3023 5179 2987C 5216 2947 5217 2943 5204 2919C 5197 2905 5180 2886 5166 2877C 5116 2844 5063 2840 4834 2855C 4624 2868 4609 2871 4487 2910C 4416 2932 4350 2950 4340 2950C 4329 2950 4306 2963 4289 2978L4289 2978L4257 3007L4290 3066C 4371 3209 4501 3406 4605 3546C 4748 3736 4784 3796 4816 3895C 4850 4001 4857 4154 4840 4401C 4833 4505 4829 4592 4832 4595C 4835 4598 4854 4578 4875 4549C 4898 4517 4915 4501 4919 4509C 4924 4516 4935 4504 4950 4478C 4973 4437 4974 4436 4980 4460C 4985 4481 4987 4482 4993 4468C 5003 4441 5023 4446 5015 4473L5015 4473L5008 4495L5025 4473C 5034 4460 5046 4450 5051 4450C 5057 4450 5056 4459 5049 4473C 5038 4493 5038 4494 5054 4481C 5063 4473 5072 4469 5075 4471C 5077 4474 5064 4514 5045 4560C 5005 4659 5005 4656 5027 4639C 5042 4626 5043 4628 5037 4660L5037 4660L5030 4695L5061 4658C 5098 4613 5115 4609 5105 4648L5105 4648L5098 4675L5123 4652C 5139 4636 5149 4633 5152 4641C 5154 4647 5191 4611 5234 4559C 5277 4507 5317 4465 5321 4466C 5326 4467 5339 4468 5349 4469C 5363 4470 5367 4475 5362 4492C 5358 4509 5360 4512 5375 4507C 5390 4501 5392 4504 5388 4530C 5384 4556 5386 4559 5402 4554C 5421 4548 5427 4564 5409 4576C 5401 4581 5401 4584 5409 4589C 5424 4599 5400 4668 5360 4726C 5344 4751 5330 4773 5330 4774C 5330 4776 5339 4780 5350 4783C 5365 4787 5378 4777 5402 4748C 5443 4696 5450 4715 5415 4778C 5400 4804 5393 4819 5401 4813C 5420 4794 5429 4797 5423 4820C 5420 4831 5423 4840 5429 4840C 5435 4840 5440 4836 5440 4830C 5440 4818 5450 4817 5469 4829C 5481 4837 5482 4843 5472 4864C 5459 4894 5466 4897 5492 4873C 5519 4849 5516 4869 5475 4996C 5455 5056 5442 5111 5445 5119C 5454 5141 5504 5125 5596 5069zM5738 2968C 5734 2857 5727 2790 5711 2722L5711 2722L5688 2629L5647 2635C 5624 2639 5604 2643 5603 2644C 5601 2645 5597 2681 5592 2723L5592 2723L5584 2799L5627 2835C 5664 2866 5670 2877 5670 2909C 5670 2929 5664 2955 5656 2965C 5644 2982 5646 2993 5682 3063C 5709 3119 5725 3139 5732 3132C 5739 3125 5741 3068 5738 2968zM5579 2688C 5580 2656 5570 2653 5542 2678L5542 2678L5522 2695L5543 2750L5565 2805L5572 2760C 5575 2735 5579 2703 5579 2688zM4356 2775C 4374 2761 4374 2761 4352 2760C 4339 2760 4315 2746 4298 2730C 4274 2706 4269 2694 4274 2672C 4281 2643 4389 2536 4552 2397C 4605 2352 4647 2314 4646 2313C 4645 2311 4614 2322 4579 2337C 4520 2362 4503 2365 4369 2366C 4194 2369 4169 2377 4138 2448C 4115 2499 4103 2615 4114 2674C 4120 2703 4125 2710 4144 2710C 4161 2710 4170 2703 4175 2683L4175 2683L4181 2656L4198 2682C 4222 2719 4302 2789 4321 2790C 4329 2790 4345 2783 4356 2775zM5014 2633C 5013 2626 5012 2581 5012 2533L5012 2533L5010 2445L4965 2490L4920 2535L4932 2593L4944 2651L4980 2648C 5000 2646 5015 2640 5014 2633zM4764 2596C 4782 2553 4815 2530 4860 2530C 4888 2530 4907 2519 4954 2478L4954 2478L5013 2426L5006 2348C 4997 2244 4990 2210 4975 2210C 4952 2210 4931 2245 4906 2325C 4878 2411 4826 2499 4754 2579C 4715 2623 4711 2630 4729 2630C 4743 2630 4754 2619 4764 2596zM2462 2448C 2487 2391 2506 2343 2505 2342C 2503 2340 2470 2346 2431 2356C 2363 2374 2358 2377 2323 2429C 2303 2459 2291 2485 2296 2487C 2301 2489 2328 2503 2355 2520C 2383 2536 2408 2549 2411 2549C 2414 2550 2438 2504 2462 2448zM1774 2431C 1801 2418 1840 2405 1862 2403L1862 2403L1900 2397L1900 2309C 1900 2260 1898 2220 1895 2220C 1893 2220 1867 2238 1838 2260C 1809 2281 1760 2309 1728 2321C 1696 2333 1670 2344 1670 2346C 1670 2360 1713 2460 1718 2458C 1722 2456 1747 2444 1774 2431zM2948 2368C 2955 2361 2960 2345 2960 2332C 2960 2313 2956 2309 2943 2315C 2933 2319 2904 2330 2878 2339C 2852 2348 2830 2358 2830 2362C 2830 2380 2931 2385 2948 2368zM3865 2319C 3887 2314 3928 2300 3956 2289C 3997 2273 4009 2263 4019 2233C 4026 2214 4048 2181 4066 2160C 4097 2126 4099 2120 4089 2096C 4080 2077 4069 2070 4048 2070C 4029 2070 4020 2075 4020 2085C 4020 2142 3924 2252 3833 2299C 3788 2323 3780 2329 3800 2329C 3814 2330 3843 2325 3865 2319zM2788 2169L2820 2131L2798 2116C 2777 2101 2775 2101 2761 2128C 2753 2143 2737 2168 2724 2184C 2703 2212 2702 2215 2717 2244L2717 2244L2733 2275L2745 2241C 2751 2223 2770 2191 2788 2169zM3724 2072C 3681 2068 3676 2072 3685 2099C 3691 2119 3691 2119 3725 2097L3725 2097L3759 2075L3724 2072zM4078 2004C 4080 1981 4072 1959 4050 1928C 4017 1881 3997 1790 4011 1752C 4018 1734 4023 1733 4057 1741C 4153 1765 4157 1764 4173 1734C 4212 1659 4297 1600 4386 1585C 4408 1582 4442 1569 4461 1557L4461 1557L4495 1535L4183 1527L3870 1518L3806 1574C 3766 1609 3731 1652 3712 1689L3712 1689L3680 1747L3743 1770C 3835 1803 3904 1845 3949 1896C 3990 1943 4020 1997 4020 2025C 4020 2037 4027 2040 4048 2038C 4070 2036 4076 2030 4078 2004zM7608 1995C 7631 1946 7625 1937 7575 1943L7575 1943L7530 1950L7556 1909C 7570 1886 7580 1867 7578 1865C 7576 1864 7523 1836 7460 1803C 7391 1766 7327 1740 7300 1737C 7256 1731 7255 1731 7256 1760C 7256 1778 7270 1804 7293 1829C 7322 1861 7344 1891 7366 1928C 7366 1929 7380 1926 7395 1920C 7445 1901 7500 1941 7500 1995C 7500 2012 7516 2018 7561 2019C 7590 2020 7599 2015 7608 1995zM4889 1730C 4950 1531 4967 1500 5020 1500C 5042 1500 5098 1471 5078 1470C 5074 1470 5075 1457 5080 1440C 5085 1424 5086 1410 5083 1410C 5080 1410 5028 1426 4969 1445C 4909 1464 4851 1480 4839 1480C 4818 1480 4817 1482 4824 1583C 4831 1695 4851 1851 4856 1835C 4858 1830 4873 1782 4889 1730zM1848 1776C 1866 1751 1894 1703 1910 1668C 1949 1586 1939 1584 1807 1649C 1750 1676 1682 1709 1654 1720L1654 1720L1605 1742L1680 1769C 1721 1784 1764 1801 1775 1808C 1807 1826 1815 1823 1848 1776zM4435 1741C 4438 1735 4453 1735 4473 1741C 4490 1746 4509 1750 4515 1750C 4521 1750 4526 1709 4527 1649C 4528 1550 4528 1549 4509 1566C 4493 1580 4452 1655 4412 1743C 4407 1753 4428 1752 4435 1741zM6810 1589C 6810 1586 6796 1571 6779 1554C 6762 1538 6739 1508 6729 1487C 6708 1446 6690 1436 6611 1422C 6555 1412 6549 1417 6581 1446C 6592 1456 6618 1487 6638 1514C 6676 1566 6735 1600 6782 1597C 6797 1596 6810 1592 6810 1589zM3788 1544C 3823 1520 3814 1510 3755 1510L3755 1510L3700 1510L3712 1535C 3725 1564 3755 1568 3788 1544zM4437 1477L4549 1465L4579 1419C 4595 1393 4613 1369 4620 1365C 4627 1360 4613 1347 4580 1328C 4552 1312 4511 1281 4489 1259L4489 1259L4449 1219L4302 1254C 4221 1273 4136 1292 4114 1296C 4055 1305 4047 1312 4055 1349C 4065 1397 4114 1446 4168 1464C 4255 1492 4281 1493 4437 1477zM7220 1440C 7276 1385 7359 1326 7429 1290C 7472 1269 7473 1267 7454 1253C 7407 1218 7409 1217 7282 1338C 7215 1402 7160 1463 7160 1473C 7160 1482 7162 1490 7164 1490C 7167 1490 7192 1467 7220 1440zM4074 1449C 4065 1439 4016 1417 3965 1400C 3914 1383 3865 1363 3855 1356C 3842 1347 3824 1346 3791 1351C 3766 1356 3701 1364 3647 1368C 3593 1373 3547 1380 3543 1384C 3533 1394 3572 1432 3613 1450C 3645 1465 3685 1467 3871 1467C 4084 1468 4090 1467 4074 1449zM7005 1393C 7008 1361 7013 1325 7016 1313C 7020 1292 7019 1292 6988 1304C 6970 1311 6947 1320 6938 1323C 6923 1328 6923 1334 6935 1379C 6951 1441 6957 1450 6980 1450C 6995 1450 7000 1440 7005 1393zM4977 1390C 5075 1367 5126 1341 5158 1297C 5175 1273 5209 1243 5234 1229C 5285 1202 5288 1196 5260 1160C 5241 1135 5240 1135 5088 1136C 4952 1136 4738 1154 4718 1166C 4714 1169 4728 1186 4749 1206C 4797 1248 4820 1295 4820 1347C 4820 1369 4823 1390 4827 1393C 4836 1403 4929 1401 4977 1390zM6677 1336C 6680 1333 6655 1252 6649 1246C 6646 1243 6619 1265 6589 1296L6589 1296L6535 1351L6605 1344C 6644 1340 6676 1337 6677 1336z" stroke="none" fill="#000000" fill-rule="nonzero" />
	</g>
</g>
</svg>