<svg width="500" height="500" xmlns="http://www.w3.org/2000/svg">

 <g>
  <title>Layer 1</title>
  <g id="svg_1" transform="matrix(0.333333 0 0 0.333333 0.333333 0)">
   <g id="svg_2" transform="matrix(0.1 0 0 -0.1 0 1236)">
    <path id="svg_3" fill-rule="nonzero" fill="#000000" d="m4317,10909c-178,-26 -288,-71 -631,-259c-75,-41 -83,-44 -155,-42c-153,3 -400,-48 -671,-138c-290,-97 -458,-184 -588,-306c-73,-67 -172,-202 -172,-233c0,-18 27,-25 178,-47c30,-5 40,-10 33,-18c-5,-6 -15,-76 -21,-155c-10,-130 -10,-145 6,-162c24,-26 11,-234 -16,-264c-28,-31 -46,-274 -24,-317c22,-43 10,-230 -17,-268c-14,-19 -21,-56 -29,-152c-10,-118 -9,-131 9,-165c17,-34 18,-49 10,-138c-6,-75 -13,-106 -29,-127c-16,-22 -22,-52 -30,-149c-5,-67 -10,-122 -12,-123c-89,-40 -137,-101 -139,-178l0,0l-2,-48l-54,0c-246,0 -317,-340 -91,-434c53,-23 145,-21 193,4c22,11 41,20 43,20c2,0 -6,-16 -18,-35c-21,-33 -21,-37 -6,-60c19,-30 20,-35 3,-35c-8,0 -22,-9 -32,-20c-23,-26 -11,-70 23,-85c12,-5 22,-17 22,-25c0,-8 -18,-260 -40,-560c-22,-300 -42,-581 -45,-625c-11,-161 -15,-176 -38,-173c-20,3 -21,8 -18,86l0,0l3,82l-41,0c-30,0 -43,-5 -51,-20c-15,-27 -38,-25 -46,4c-5,20 -13,24 -66,30c-34,3 -76,6 -94,6c-32,0 -33,-1 -39,-54c-11,-87 -9,-91 63,-94l0,0l62,-3l0,-35l0,-35l-67,3l-68,3l-3,-57l-3,-58l43,0c71,0 88,-8 88,-42l0,0l0,-30l-68,3l-67,4l-9,-68c-5,-37 -7,-70 -4,-72c2,-2 45,-7 95,-11c86,-6 91,-6 102,15c16,28 39,27 47,-4c5,-22 12,-25 50,-25l0,0l44,0l0,49c0,78 10,111 32,111c19,0 20,-6 16,-80c-2,-62 0,-80 10,-80c9,0 7,-8 -7,-26c-28,-35 -26,-69 4,-99c59,-60 147,6 109,81c-11,20 -11,29 -3,34c13,8 15,39 69,825c66,972 61,916 79,922c52,19 69,79 29,107c-21,15 -21,16 -3,36c17,19 17,23 2,60c-18,46 -15,49 23,16c44,-36 116,-50 186,-36c47,10 65,20 105,60c136,136 61,361 -130,389l0,0l-45,6l3,47c3,59 -24,124 -68,161l0,0l-32,27l9,127c9,118 8,130 -10,160c-18,30 -18,39 -7,135c8,69 18,110 30,123c13,15 19,52 27,154c9,123 8,138 -9,170c-17,33 -17,45 -7,136c8,64 18,109 30,125c13,19 20,58 27,155c8,119 8,133 -9,160c-26,43 -18,216 12,259c22,31 37,129 39,258c1,51 5,75 13,73c6,-2 115,-11 241,-20c440,-30 649,-62 710,-109c97,-74 188,-287 213,-496c5,-41 7,-187 4,-324c-4,-185 -2,-247 7,-242c6,4 11,19 11,34c0,15 5,34 10,42c8,12 10,9 10,-12c0,-46 16,-32 29,25c22,100 31,88 31,-43c0,-130 -18,-330 -45,-496c-10,-60 -12,-100 -6,-103c6,-4 0,-60 -15,-141c-29,-162 -42,-306 -27,-297c6,4 13,20 16,37c10,49 24,34 30,-33c3,-34 9,-70 12,-80c9,-21 25,-23 25,-2c0,8 4,15 9,15c4,0 6,-33 3,-72c-3,-58 -2,-71 8,-61c7,6 18,9 25,7c7,-3 16,6 21,23c6,22 9,9 15,-60c4,-51 13,-96 21,-105c20,-23 61,-203 60,-260c0,-26 -3,-100 -7,-165c-22,-356 142,-679 486,-958c118,-95 129,-108 219,-257c84,-138 154,-236 335,-467c166,-212 232,-311 304,-460c91,-186 314,-697 360,-822c98,-268 219,-782 286,-1213c14,-91 37,-232 50,-315c14,-82 25,-179 25,-215c0,-123 -17,-161 -211,-476c-192,-312 -293,-456 -383,-544c-52,-50 -56,-52 -57,-30c0,14 -4,57 -8,95c-6,43 -5,118 2,193c14,154 -2,382 -38,561c-14,68 -24,124 -23,125c39,25 98,80 120,115c79,125 -15,301 -160,301c-37,0 -95,-29 -120,-59c-48,-59 -66,-165 -38,-219c19,-35 90,-103 142,-135l0,0l42,-26l21,-113c11,-62 25,-151 31,-198c13,-111 13,-373 0,-365c-5,3 -10,23 -11,43c0,20 -4,46 -9,57c-7,15 -9,10 -9,-23c-1,-71 -60,-221 -109,-282c-24,-30 -19,-43 -65,155l0,0l-36,150l40,33c61,52 93,114 85,163c-13,80 -64,139 -132,153c-63,14 -140,-42 -164,-118c-25,-79 9,-149 105,-212l0,0l54,-36l30,-126c17,-70 34,-148 37,-174c6,-46 6,-47 -51,-107c-55,-58 -58,-60 -84,-47c-43,22 -161,56 -195,56c-43,0 -76,-19 -103,-59c-29,-43 -29,-55 0,-37c22,14 50,19 95,17c32,-1 82,-53 82,-85c0,-43 -39,-44 -128,-3c-91,42 -160,53 -236,37c-101,-21 -166,-86 -166,-167l0,0l0,-44l-30,22c-23,18 -27,26 -19,40c20,37 174,225 251,304l0,0l78,82l68,7c94,10 146,37 171,90c54,111 -7,236 -115,236c-43,0 -115,-40 -141,-80c-29,-42 -31,-127 -4,-185l0,0l18,-40l-104,-115c-58,-63 -137,-157 -175,-208c-39,-50 -77,-92 -84,-92c-20,0 -18,57 5,160c52,230 180,483 361,710c106,132 112,137 201,143c152,11 224,77 224,207c0,81 -27,129 -89,159c-73,36 -148,21 -214,-42c-69,-66 -78,-125 -37,-241l0,0l24,-69l-30,-36c-171,-204 -254,-328 -338,-502c-70,-146 -105,-249 -128,-376c-9,-51 -19,-93 -22,-93c-16,1 -29,23 -70,110c-71,155 -68,144 -39,178c63,75 91,183 77,292c-27,192 -181,392 -457,590c-177,127 -229,157 -247,139c-15,-16 -142,-295 -185,-406c-41,-105 -58,-173 -75,-301c-8,-59 -22,-138 -31,-177c-23,-102 -14,-160 42,-271c26,-52 44,-97 41,-100c-16,-17 -66,21 -154,118c-54,58 -146,158 -204,221c-58,63 -122,135 -143,160l0,0l-38,47l1,110c2,97 6,120 31,185c58,142 33,304 -70,472c-28,45 -54,84 -59,87c-10,6 -55,-133 -77,-236c-11,-50 -15,-108 -12,-183c5,-129 30,-199 97,-264c42,-41 58,-79 46,-108c-6,-15 -14,-10 -52,32c-68,74 -133,178 -225,359c-44,89 -103,196 -130,238c-62,97 -68,119 -65,242c2,95 0,105 -31,170c-35,75 -123,170 -244,263l0,0l-67,52l-6,-30c-8,-36 20,-220 47,-308c11,-36 31,-88 45,-115c32,-63 116,-147 179,-179c28,-14 55,-31 61,-39c6,-7 43,-89 83,-182c39,-94 90,-203 112,-243c28,-51 36,-73 26,-73c-20,0 -111,65 -205,145c-133,114 -248,154 -382,135c-36,-5 -70,-10 -76,-10c-5,0 -16,-4 -24,-9c-11,-7 9,-34 83,-119c166,-190 276,-240 436,-197c153,41 226,8 353,-159c34,-45 100,-122 148,-173c48,-50 92,-101 99,-112c17,-32 -16,-27 -96,15c-38,20 -101,54 -140,74c-87,46 -162,57 -263,40c-82,-14 -194,-65 -233,-107l0,0l-28,-29l138,-58c75,-32 174,-68 219,-79c104,-25 161,-15 247,43c73,50 131,54 214,15c102,-47 255,-226 288,-334c12,-41 27,-62 89,-117c68,-61 91,-94 66,-94c-5,0 -24,-12 -41,-27l0,0l-32,-26l-57,30c-106,58 -235,82 -341,63c-77,-14 -162,-48 -157,-64c2,-6 41,-36 87,-68c46,-32 79,-58 73,-58c-23,0 -233,83 -337,134c-157,76 -287,165 -389,267c-48,48 -87,86 -87,83c0,-9 124,-251 168,-329c270,-473 637,-853 1010,-1045c75,-39 85,-42 110,-30c58,27 92,40 92,35c0,-8 -118,-65 -135,-65c-52,0 -202,-129 -235,-202c-87,-191 122,-311 389,-222c124,41 286,146 434,282c37,35 34,18 -13,-73c-85,-168 -74,-299 29,-343c51,-21 162,-18 241,7c126,39 262,143 312,238c13,23 28,43 35,43c7,0 36,-9 65,-21c217,-85 577,-132 853,-110c423,34 816,145 1269,360c71,34 130,60 132,58c2,-1 -1,-20 -6,-42c-50,-219 16,-539 143,-697c126,-156 371,-92 385,102c2,33 6,60 9,60c2,0 14,-6 26,-14c68,-45 183,-37 243,17c51,44 74,95 74,166l0,0l0,60l56,-30c39,-20 70,-29 103,-29c125,1 222,111 208,237l0,0l-4,42l36,-24c79,-51 183,-53 245,-4c15,12 27,15 31,9c3,-5 22,-10 40,-10c28,0 37,6 50,29c23,46 53,165 76,306c11,71 22,131 23,133c7,7 56,-41 56,-55c0,-9 -9,-31 -21,-50c-31,-50 -24,-146 18,-235c35,-75 61,-112 142,-206l0,0l55,-63l14,28c10,18 15,58 16,113c0,132 -37,225 -134,336c-62,71 -79,114 -38,99c9,-4 31,-36 49,-73c68,-134 192,-225 308,-226c35,0 69,7 90,18l0,0l33,18l34,-33c71,-69 91,-156 54,-228c-30,-60 -34,-110 -15,-177c17,-61 144,-303 158,-304c15,0 56,104 66,167c18,117 -10,223 -87,319c-36,45 -82,124 -82,139c0,11 57,-24 125,-78c39,-29 102,-72 140,-94c71,-42 121,-88 146,-133c10,-17 14,-62 14,-141c0,-115 0,-116 36,-175c28,-46 59,-76 145,-141c73,-55 111,-78 116,-70c13,20 9,120 -7,182c-21,80 -46,115 -165,234c-55,55 -100,105 -100,110c0,16 26,13 61,-5c17,-8 101,-35 187,-59c122,-35 160,-50 172,-67c40,-60 104,-117 161,-143c91,-40 302,-56 357,-26c22,12 -152,169 -226,204c-59,28 -68,29 -135,22c-133,-14 -157,-11 -232,24c-38,18 -126,53 -195,78c-181,65 -339,150 -325,174c12,18 51,8 87,-21c50,-41 78,-50 159,-50c95,0 145,14 269,72l0,0l105,50l-69,35c-147,74 -273,77 -386,7c-42,-26 -80,-40 -137,-50l0,0l-78,-13l-70,46c-38,25 -114,79 -167,120c-86,65 -98,77 -98,104c0,17 -4,38 -9,47c-8,15 -2,17 53,17c48,0 76,8 130,33c64,30 75,32 176,32c150,0 347,37 357,67c6,16 -74,127 -149,208c-78,84 -162,148 -250,191c-32,15 -59,33 -62,40c-3,8 21,18 72,29c130,29 281,83 419,152c88,43 138,63 151,59c11,-4 61,-49 111,-101c84,-87 91,-97 91,-135c0,-51 27,-80 73,-80c66,0 90,68 41,117c-21,21 -32,24 -62,19c-36,-5 -39,-3 -123,85c-78,84 -83,90 -55,85c59,-12 192,-83 269,-145c102,-83 127,-116 127,-170c0,-56 42,-101 92,-101c77,0 105,84 48,142c-28,28 -34,30 -76,23l0,0l-45,-6l-72,68c-109,103 -202,160 -342,208c-15,6 -4,13 50,31c39,13 86,31 106,40c36,15 38,15 77,-11c28,-19 47,-24 65,-20c91,23 71,141 -22,133c-28,-2 -40,-10 -56,-35c-15,-25 -38,-39 -95,-62c-80,-31 -182,-63 -186,-58c-2,2 33,29 76,60c136,99 287,252 395,401l0,0l20,28l1,-89c1,-84 3,-92 47,-179c67,-134 142,-189 257,-188c52,0 75,6 116,28c53,29 63,42 95,135c38,108 18,234 -62,393c-22,43 -39,80 -39,83c0,2 39,-34 86,-81c119,-117 195,-156 320,-162c119,-6 184,13 249,70c57,50 84,105 85,169c0,66 -17,108 -64,157c-80,85 -187,122 -400,141c-121,11 -164,21 -87,21c65,0 178,29 258,65c94,44 165,110 205,194c27,57 31,75 30,145c-1,67 -6,89 -29,135c-23,45 -38,60 -82,83c-67,35 -162,38 -229,8c-64,-29 -161,-128 -248,-253c-101,-146 -102,-147 -56,-47c50,109 63,164 63,270c0,157 -67,281 -183,339c-125,63 -262,32 -324,-74c-59,-101 -39,-265 55,-457c28,-56 49,-103 47,-105c-1,-1 -20,21 -42,49c-51,67 -153,151 -229,189c-42,21 -88,33 -151,41c-88,10 -93,10 -145,-14c-134,-63 -186,-134 -175,-239c19,-184 171,-276 488,-296l0,0l113,-7l-95,-17c-129,-23 -175,-36 -240,-69c-88,-45 -135,-92 -177,-178c-34,-68 -38,-84 -37,-152c0,-90 22,-140 84,-193c78,-67 172,-70 282,-10c56,30 161,137 214,218c41,61 53,71 28,23c-125,-241 -374,-491 -642,-642c-162,-92 -451,-197 -479,-174c-22,18 -6,25 67,32c74,8 84,15 49,40c-36,25 -17,42 52,50c38,4 66,12 71,20c5,8 24,20 43,26c19,6 35,15 35,19c0,9 -109,41 -138,41c-26,0 -33,10 -22,30c10,19 158,110 178,110c7,0 12,9 12,19c0,11 19,38 43,60l0,0l42,41l-75,-6c-41,-3 -97,-10 -123,-15c-66,-12 -67,-12 -67,14c0,25 41,88 79,121c11,11 21,26 21,34c0,7 8,27 17,43c9,15 15,30 12,33c-2,2 -23,-1 -46,-7c-23,-6 -46,-8 -49,-4c-4,4 -6,34 -5,66c2,49 -2,64 -18,80c-12,12 -21,29 -21,39c0,10 -3,21 -6,25c-10,10 -63,-49 -79,-88c-19,-43 -39,-45 -65,-3c-20,33 -22,32 -35,-27c-12,-56 -29,-85 -51,-85c-11,0 -29,-6 -39,-14c-20,-15 -15,-17 -107,45l0,0l-31,22l6,-63c7,-61 6,-62 -16,-56c-12,3 -30,6 -39,6c-11,0 -18,8 -18,19c0,30 -39,71 -67,71c-14,0 -36,11 -49,25c-49,53 -118,36 -137,-34l0,0l-8,-33l-23,21c-43,40 -126,15 -126,-39c0,-11 -6,-20 -14,-20c-8,0 -21,-3 -30,-6c-11,-4 -19,2 -25,19c-11,28 -47,57 -72,57c-31,0 -69,-39 -69,-71c0,-37 -16,-30 -25,10c-4,20 0,41 14,67c36,67 21,144 -33,174c-30,16 -31,21 -10,61c8,17 23,63 33,102c18,70 20,72 55,79c91,19 136,75 136,169c0,47 -4,55 -40,91c-39,39 -42,40 -94,36c-37,-3 -65,-12 -88,-29c-18,-14 -78,-39 -133,-57c-192,-60 -359,-156 -461,-263c-49,-53 -51,-54 -100,-51c-43,3 -55,0 -83,-24c-32,-27 -34,-27 -97,-15c-98,18 -176,-9 -215,-74c-23,-36 -23,-30 -3,55c9,37 17,134 20,224l0,0l5,159l39,28c21,16 44,37 49,48c15,28 13,81 -3,113c-14,26 -12,32 41,126c30,54 100,161 154,238c180,253 259,395 291,521l0,0l11,44l25,-23l25,-23l-6,105c-4,58 -16,175 -27,260c-24,186 -24,181 -5,174c8,-4 21,-1 28,4c8,7 18,7 27,2c35,-22 42,-8 10,20c-35,30 -35,30 -7,24c30,-7 36,6 12,26c-22,18 -11,24 14,9c11,-7 24,-10 28,-5c9,9 -30,45 -100,93c-26,18 -47,40 -47,48c0,12 4,14 19,5c30,-16 43,-12 36,10c-4,11 -2,20 4,20c19,0 12,22 -14,42c-14,11 -25,24 -25,29c0,18 68,39 123,39c89,0 162,-26 376,-135c141,-72 215,-105 239,-105c35,0 35,0 114,100c49,61 124,111 207,137c43,13 90,17 201,17c161,-1 232,-13 525,-89c94,-24 238,-58 320,-75c83,-17 233,-55 335,-85c230,-67 291,-82 406,-95c100,-11 215,-1 296,26l0,0l46,15l157,-55c108,-37 178,-68 224,-99c94,-63 144,-86 195,-93c42,-6 45,-5 52,20c3,14 8,26 11,26c8,0 299,-158 392,-214c52,-31 103,-56 113,-56c11,0 27,13 36,30c9,16 20,30 23,30c7,0 25,-12 185,-122c101,-69 176,-98 254,-98c33,0 60,4 60,9c0,5 7,25 15,45l0,0l15,36l60,-39c106,-68 245,-101 302,-70c24,13 48,67 48,109c0,16 2,30 4,30c2,0 46,-25 97,-55c57,-34 100,-53 109,-49c8,4 41,9 72,12c49,4 76,-2 177,-37c172,-59 191,-56 191,30c0,49 13,55 81,35c54,-16 111,-21 122,-10c12,12 -32,82 -74,117c-23,20 -136,84 -253,143c-306,154 -605,312 -733,387c-61,36 -165,93 -230,126c-82,42 -181,107 -323,213c-381,282 -754,553 -983,712c-125,87 -226,160 -225,162c5,4 345,-56 538,-96c546,-111 960,-217 1535,-390c261,-78 381,-107 465,-112l0,0l45,-3l3,38c4,50 12,49 204,-17c172,-60 287,-84 301,-63c13,20 1,102 -22,148c-44,85 -228,248 -371,327c-76,42 -372,171 -505,220c-206,76 -395,130 -1030,296c-817,214 -778,200 -1005,343c-168,105 -217,130 -397,203c-126,50 -158,70 -113,70c19,0 187,53 196,62c7,8 -106,241 -142,291c-28,38 -32,51 -24,67c8,14 5,25 -13,47c-13,15 -48,69 -77,118c-93,156 -230,271 -465,388c-150,74 -255,118 -560,232c-266,100 -333,129 -584,259c-176,91 -252,113 -469,132c-286,25 -338,48 -491,212c-55,59 -147,143 -216,195c-66,50 -307,240 -535,422c-507,404 -866,683 -1042,808c-160,114 -195,149 -243,246c-20,41 -66,122 -102,180c-36,58 -140,236 -230,394c-232,407 -317,539 -449,698c-78,94 -227,237 -319,307c-80,60 -299,171 -396,201c-129,39 -319,51 -462,30zm-1918,-1089c1,-14 0,-70 -4,-126l0,0l-7,-100l-32,0c-32,1 -33,1 -30,46c2,25 5,77 7,116c2,39 7,77 12,83c13,21 50,8 54,-19zm-39,-626c0,-17 -3,-65 -6,-106c-7,-75 -7,-75 -35,-74c-28,1 -29,3 -29,47c0,25 3,73 6,106c6,58 7,60 35,59c25,-1 29,-5 29,-32zm-40,-609c0,-33 -3,-84 -6,-113c-6,-42 -9,-50 -20,-41c-8,6 -21,9 -29,5c-12,-4 -15,5 -15,52c0,31 3,80 6,107c6,47 8,50 35,50c29,0 29,0 29,-60zm-52,-528c14,5 17,-79 6,-161c-6,-43 -9,-46 -35,-46c-29,0 -29,1 -29,58c0,31 3,80 6,109c6,44 9,51 23,44c9,-5 22,-6 29,-4zm-5,-308c58,-26 75,-116 32,-167c-14,-17 -25,-33 -25,-37c0,-3 12,-21 26,-40l0,0l25,-33l46,20c57,25 101,18 148,-23c104,-91 43,-249 -96,-249c-69,0 -110,34 -139,113c-5,15 -17,27 -26,27c-15,0 -14,3 4,23c28,30 28,42 -3,72c-17,18 -35,25 -61,25c-61,0 -90,-41 -64,-91c8,-15 7,-19 -4,-19c-8,0 -23,-17 -33,-37c-27,-51 -63,-75 -120,-80c-155,-13 -212,198 -73,270c45,23 107,18 150,-13l0,0l32,-23l36,36l36,36l-21,23c-29,32 -36,63 -23,103c21,63 91,92 153,64zm4923,-4120c102,-61 140,-92 159,-130c20,-37 19,-65 -6,-154c-16,-58 -18,-79 -9,-95c6,-12 10,-31 9,-43c-1,-12 2,-30 6,-40c4,-10 3,-36 -4,-56c-13,-44 -15,-84 -3,-78c4,3 8,-34 8,-81c1,-48 12,-145 25,-217c16,-91 23,-170 23,-265l0,0l1,-135l-52,-109c-82,-169 -186,-329 -311,-475l0,0l-29,-35l-36,36c-100,100 -237,32 -237,-118c0,-38 6,-51 39,-87c37,-40 38,-44 25,-68c-7,-14 -24,-33 -38,-42c-50,-33 -103,-37 -332,-22c-210,13 -225,16 -347,55c-71,22 -137,40 -147,40c-11,0 -34,13 -51,28l0,0l-32,29l33,59c81,143 211,340 315,480c143,190 179,250 211,349c34,106 41,259 24,506c-7,104 -11,191 -8,194c3,3 22,-17 43,-46c23,-32 40,-48 44,-40c5,7 16,-5 31,-31c23,-41 24,-42 30,-18c5,21 7,22 13,8c10,-27 30,-22 22,5l0,0l-7,22l17,-22c9,-13 21,-23 26,-23c6,0 5,9 -2,23c-11,20 -11,21 5,8c9,-8 18,-12 21,-10c2,3 -11,43 -30,89c-40,99 -40,96 -18,79c15,-13 16,-11 10,21l0,0l-7,35l31,-37c37,-45 54,-49 44,-10l0,0l-7,27l25,-23c16,-16 26,-19 29,-11c2,6 39,-30 82,-82c43,-52 83,-94 87,-93c5,1 18,2 28,3c14,1 18,6 13,23c-4,17 -2,20 13,15c15,-6 17,-3 13,23c-4,26 -2,29 14,24c19,-6 25,10 7,22c-8,5 -8,8 0,13c15,10 -9,79 -49,137c-16,25 -30,47 -30,48c0,2 9,6 20,9c15,4 28,-6 52,-35c41,-52 48,-33 13,30c-15,26 -22,41 -14,35c19,-19 28,-16 22,7c-3,11 0,20 6,20c6,0 11,-4 11,-10c0,-12 10,-13 29,-1c12,8 13,14 3,35c-13,30 -6,33 20,9c27,-24 24,-4 -17,123c-20,60 -33,115 -30,123c9,22 59,6 151,-50zm142,-2101c-4,-111 -11,-178 -27,-246l0,0l-23,-93l-41,6c-23,4 -43,8 -44,9c-2,1 -6,37 -11,79l0,0l-8,76l43,36c37,31 43,42 43,74c0,20 -6,46 -14,56c-12,17 -10,28 26,98c27,56 43,76 50,69c7,-7 9,-64 6,-164zm-159,-280c1,-32 -9,-35 -37,-10l0,0l-20,17l21,55l22,55l7,-45c3,-25 7,-57 7,-72zm-1223,87c18,-14 18,-14 -4,-15c-13,0 -37,-14 -54,-30c-24,-24 -29,-36 -24,-58c7,-29 115,-136 278,-275c53,-45 95,-83 94,-84c-1,-2 -32,9 -67,24c-59,25 -76,28 -210,29c-175,3 -200,11 -231,82c-23,51 -35,167 -24,226c6,29 11,36 30,36c17,0 26,-7 31,-27l0,0l6,-27l17,26c24,37 104,107 123,108c8,0 24,-7 35,-15zm658,-142c-1,-7 -2,-52 -2,-100l0,0l-2,-88l-45,45l-45,45l12,58l12,58l36,-3c20,-2 35,-8 34,-15zm-250,-37c18,-43 51,-66 96,-66c28,0 47,-11 94,-52l0,0l59,-52l-7,-78c-9,-104 -16,-138 -31,-138c-23,0 -44,35 -69,115c-28,86 -80,174 -152,254c-39,44 -43,51 -25,51c14,0 25,-11 35,-34zm-2302,-148c25,-57 44,-105 43,-106c-2,-2 -35,4 -74,14c-68,18 -73,21 -108,73c-20,30 -32,56 -27,58c5,2 32,16 59,33c28,16 53,29 56,29c3,1 27,-45 51,-101zm-688,-17c27,-13 66,-26 88,-28l0,0l38,-6l0,-88c0,-49 -2,-89 -5,-89c-2,0 -28,18 -57,40c-29,21 -78,49 -110,61c-32,12 -58,23 -58,25c0,14 43,114 48,112c4,-2 29,-14 56,-27zm1174,-63c7,-7 12,-23 12,-36c0,-19 -4,-23 -17,-17c-10,4 -39,15 -65,24c-26,9 -48,19 -48,23c0,18 101,23 118,6zm917,-49c22,-5 63,-19 91,-30c41,-16 53,-26 63,-56c7,-19 29,-52 47,-73c31,-34 33,-40 23,-64c-9,-19 -20,-26 -41,-26c-19,0 -28,5 -28,15c0,57 -96,167 -187,214c-45,24 -53,30 -33,30c14,1 43,-4 65,-10zm-1077,-150l32,-38l-22,-15c-21,-15 -23,-15 -37,12c-8,15 -24,40 -37,56c-21,28 -22,31 -7,60l0,0l16,31l12,-34c6,-18 25,-50 43,-72zm936,-97c-43,-4 -48,0 -39,27c6,20 6,20 40,-2l0,0l34,-22l-35,-3zm354,-68c2,-23 -6,-45 -28,-76c-33,-47 -53,-138 -39,-176c7,-18 12,-19 46,-11c96,24 100,23 116,-7c39,-75 124,-134 213,-149c22,-3 56,-16 75,-28l0,0l34,-22l-312,-8l-313,-9l-64,56c-40,35 -75,78 -94,115l0,0l-32,58l63,23c92,33 161,75 206,126c41,47 71,101 71,129c0,12 7,15 28,13c22,-2 28,-8 30,-34zm3530,-9c23,-49 17,-58 -33,-52l0,0l-45,7l26,-41c14,-23 24,-42 22,-44c-2,-1 -55,-29 -118,-62c-69,-37 -133,-63 -160,-66c-44,-6 -45,-6 -44,23c0,18 14,44 37,69c29,32 51,62 73,99c0,1 14,-2 29,-8c50,-19 105,21 105,75c0,17 16,23 61,24c29,1 38,-4 47,-24zm-2719,-265c61,-199 78,-230 131,-230c22,0 78,-29 58,-30c-4,0 -3,-13 2,-30c5,-16 6,-30 3,-30c-3,0 -55,16 -114,35c-60,19 -118,35 -130,35c-21,0 -22,2 -15,103c7,112 27,268 32,252c2,-5 17,-53 33,-105zm-3041,46c18,-25 46,-73 62,-108c39,-82 29,-84 -103,-19c-57,27 -125,60 -153,71l0,0l-49,22l75,27c41,15 84,32 95,39c32,18 40,15 73,-32zm2587,-35c3,-6 18,-6 38,0c17,5 36,9 42,9c6,0 11,-41 12,-101c1,-99 1,-100 -18,-83c-16,14 -57,89 -97,177c-5,10 16,9 23,-2zm2375,-152c0,-3 -14,-18 -31,-35c-17,-16 -40,-46 -50,-67c-21,-41 -39,-51 -118,-65c-56,-10 -62,-5 -30,24c11,10 37,41 57,68c38,52 97,86 144,83c15,-1 28,-5 28,-8zm-3022,-45c35,-24 26,-34 -33,-34l0,0l-55,0l12,25c13,29 43,33 76,9zm649,-67l112,-12l30,-46c16,-26 34,-50 41,-54c7,-5 -7,-18 -40,-37c-28,-16 -69,-47 -91,-69l0,0l-40,-40l-147,35c-81,19 -166,38 -188,42c-59,9 -67,16 -59,53c10,48 59,97 113,115c87,28 113,29 269,13zm2783,-37c56,-55 139,-114 209,-150c43,-21 44,-23 25,-37c-47,-35 -45,-36 -172,85c-67,64 -122,125 -122,135c0,9 2,17 4,17c3,0 28,-23 56,-50zm-3146,9c-9,-10 -58,-32 -109,-49c-51,-17 -100,-37 -110,-44c-13,-9 -31,-10 -64,-5c-25,5 -90,13 -144,17c-54,5 -100,12 -104,16c-10,10 29,48 70,66c32,15 72,17 258,17c213,1 219,0 203,-18zm2931,-56c3,-32 8,-68 11,-80c4,-21 3,-21 -28,-9c-18,7 -41,16 -50,19c-15,5 -15,11 -3,56c16,62 22,71 45,71c15,0 20,-10 25,-57zm-2028,-3c98,-23 149,-49 181,-93c17,-24 51,-54 76,-68c51,-27 54,-33 26,-69c-19,-25 -20,-25 -172,-24c-136,0 -350,18 -370,30c-4,3 10,20 31,40c48,42 71,89 71,141c0,22 3,43 7,46c9,10 102,8 150,-3zm1700,-54c3,-3 -22,-84 -28,-90c-3,-3 -30,19 -60,50l0,0l-54,55l70,-7c39,-4 71,-7 72,-8z"/>
   </g>
  </g>
 </g>
</svg>